<svg width="606" height="547" xmlns="http://www.w3.org/2000/svg" xmlns:xlink="http://www.w3.org/1999/xlink" xml:space="preserve" overflow="hidden"><g transform="translate(-2826 -802)"><path d="M3284.5 1250.5C3284.5 1216.81 3312.03 1189.5 3346 1189.5 3379.97 1189.5 3407.5 1216.81 3407.5 1250.5 3407.5 1284.19 3379.97 1311.5 3346 1311.5 3312.03 1311.5 3284.5 1284.19 3284.5 1250.5Z" stroke="#3A3A3A" stroke-width="6.875" stroke-miterlimit="8" fill="#E8E8E8" fill-rule="evenodd" fill-opacity="0.968627"/><text fill="#3A3A3A" font-family="Arial,Arial_MSFontService,sans-serif" font-weight="400" font-size="64" transform="matrix(1 0 0 1 3327.48 1273)">8</text><path d="M2852.5 883C2852.5 849.035 2879.81 821.5 2913.5 821.5 2947.19 821.5 2974.5 849.035 2974.5 883 2974.5 916.966 2947.19 944.5 2913.5 944.5 2879.81 944.5 2852.5 916.966 2852.5 883Z" stroke="#3A3A3A" stroke-width="6.875" stroke-miterlimit="8" fill="#E8E8E8" fill-rule="evenodd"/><text fill="#3A3A3A" font-family="Arial,Arial_MSFontService,sans-serif" font-weight="400" font-size="64" transform="matrix(1 0 0 1 2895.12 906)">6</text><path d="M2851.5 1250.5C2851.5 1216.81 2879.03 1189.5 2913 1189.5 2946.97 1189.5 2974.5 1216.81 2974.5 1250.5 2974.5 1284.19 2946.97 1311.5 2913 1311.5 2879.03 1311.5 2851.5 1284.19 2851.5 1250.5Z" stroke="#3A3A3A" stroke-width="6.875" stroke-miterlimit="8" fill="#E8E8E8" fill-rule="evenodd"/><text fill="#3A3A3A" font-family="Arial,Arial_MSFontService,sans-serif" font-weight="400" font-size="64" transform="matrix(1 0 0 1 2894.92 1273)">3</text><path d="M3284.5 883C3284.5 849.035 3312.03 821.5 3346 821.5 3379.97 821.5 3407.5 849.035 3407.5 883 3407.5 916.966 3379.97 944.5 3346 944.5 3312.03 944.5 3284.5 916.966 3284.5 883Z" stroke="#3A3A3A" stroke-width="6.875" stroke-miterlimit="8" fill="#E8E8E8" fill-rule="evenodd"/><text fill="#3A3A3A" font-family="Arial,Arial_MSFontService,sans-serif" font-weight="400" font-size="64" transform="matrix(1 0 0 1 3327.48 906)">7</text><path d="M3345.5 944.5 3345.5 1189.15" stroke="#3A3A3A" stroke-width="4.58333" stroke-miterlimit="8" fill="none" fill-rule="evenodd"/><path d="M0 0 0.208235 244.652" stroke="#3A3A3A" stroke-width="4.58333" stroke-miterlimit="8" fill="none" fill-rule="evenodd" transform="matrix(1 0 0 -1 2913.5 1189.15)"/><path d="M2974.5 1250.5 3284.5 1250.5" stroke="#3A3A3A" stroke-width="4.58333" stroke-miterlimit="8" fill="none" fill-rule="evenodd"/><path d="M3284.29 883.5 2974.5 883.5" stroke="#3A3A3A" stroke-width="4.58333" stroke-miterlimit="8" fill="none" fill-rule="evenodd"/><path d="M3302.19 1207.05 2956.5 926.5" stroke="#3A3A3A" stroke-width="4.58333" stroke-miterlimit="8" fill="none" fill-rule="evenodd"/><text fill="#3A3A3A" font-family="Arial,Arial_MSFontService,sans-serif" font-weight="400" font-size="55" transform="matrix(1 0 0 1 3113.88 872)">5</text><text fill="#3A3A3A" font-family="Arial,Arial_MSFontService,sans-serif" font-weight="400" font-size="55" transform="matrix(1 0 0 1 2865.28 1085)">4</text><text fill="#3A3A3A" font-family="Arial,Arial_MSFontService,sans-serif" font-weight="400" font-size="55" transform="matrix(1 0 0 1 3072.99 1103)">2</text><text fill="#3A3A3A" font-family="Arial,Arial_MSFontService,sans-serif" font-weight="400" font-size="55" transform="matrix(1 0 0 1 3113.78 1303)">6</text><text fill="#3A3A3A" font-family="Arial,Arial_MSFontService,sans-serif" font-weight="400" font-size="55" transform="matrix(1 0 0 1 3362.48 1085)">6</text></g></svg>